<svg xmlns="http://www.w3.org/2000/svg"
     width="24"
     height="24"
     viewBox="0 0 256 256">
    <path
        fill="#000000"
        fill-rule="nonzero"
        d="M251.85,2.27c-1.02,-0.79 -2.36,-1.06 -3.61,-0.73L97.02,41.48c-1.83,0.48 -3.11,2.14 -3.11,4.03l0,151.18c-8.97,-10.02 -24.29,-16.65 -41.68,-16.65c-27.58,0 -50.01,16.66 -50.01,37.13C2.23,237.65 24.67,254.31 52.25,254.31s50.01,-16.66 50.01,-37.13L102.26,115.1l142.89,-34.91l0,87.6c-8.96,-10.02 -24.29,-16.65 -41.67,-16.65c-27.58,0 -50.01,16.66 -50.01,37.13s22.44,37.13 50.01,37.13s50.01,-16.66 50.01,-37.13L253.48,5.58C253.48,4.28 252.88,3.06 251.85,2.27zM52.25,245.97c-22.98,0 -41.68,-12.92 -41.68,-28.8c0,-15.88 18.69,-28.79 41.68,-28.79s41.68,12.92 41.68,28.79C93.92,233.05 75.22,245.97 52.25,245.97zM203.47,217.06c-22.98,0 -41.68,-12.92 -41.68,-28.79s18.7,-28.79 41.68,-28.79s41.67,12.92 41.67,28.79S226.45,217.06 203.47,217.06zM102.25,106.52L102.25,48.72L245.14,10.99l0,60.61L102.25,106.52z"
        stroke-width="2.81"
        stroke="#00000000"
        stroke-linecap="butt"
        stroke-linejoin="miter"/>
</svg>
